<svg xmlns="http://www.w3.org/2000/svg" xmlns:xlink="http://www.w3.org/1999/xlink" version="1.1" x="0px" y="0px" viewBox="0 0 90 112.5" enable-background="new 0 0 90 90" xml:space="preserve"><path d="M81.032,38.57c-0.068-0.219-0.12-0.443-0.193-0.656c-1.203-3.645-3.473-6.812-6.765-8.801  c-3.287-1.991-6.125-3.543-8.131-5.647c-1.739-1.833-2.765-4.301-3.057-7.839c3.089,0.48,5.287,2.104,7.355,3.943  c0.875,0.776,2.213-0.135,1.817-1.233c-0.833-2.292-0.421-4.527-0.109-6.647c3.932,3.423,7.151,9.115,8.229,15.516  C80.828,31.07,81.437,34.695,81.032,38.57z M65.652,52.544c-0.917-0.349-1.516-1.016-1.808-1.776  c5.927-5.281,8.943-9.943,10.26-18.797c2.267,1.699,3.688,3.932,4.589,6.651c0.145,0.439,0.271,0.881,0.38,1.339  c0,0.808-0.369,1.657-1.412,2.36c-1.624,1.088-3.02,2.276-4.025,3.536c-1.005,1.261-1.677,2.647-1.541,4.115  c0.093,1.041-0.199,1.661-0.808,2.151C69.615,53.466,67.636,53.299,65.652,52.544z M70.043,72.222  c1.78-1.709,3.468-3.683,5.015-5.933c0.459,0.349,0.495,0.647,0.719,1.385c0.167,0.563,0.469,1.693,1.235,2.464  c-1.005,0.532-2.115,0.948-3.885,1.432C72.104,71.851,71.043,72.07,70.043,72.222z M61.88,75.512  c-0.76-0.197-1.395-0.812-1.635-1.541c-0.292-0.88-0.177-1.812,1.26-2.672c1.589-0.948,2.964-1.995,3.98-3.135  c1.015-1.147,1.724-2.433,1.671-3.849c-0.036-0.964,0.276-1.489,0.839-1.932c0.563-0.437,1.459-0.724,2.437-0.745  c0.98-0.025,2.016,0.213,2.829,0.641c0.463,0.249,0.833,0.552,1.119,0.9C70.871,68.935,66.495,72.898,61.88,75.512z M45.125,80.023  c-1.552-0.031-3.156-0.271-5.369-0.771c-0.88-0.203-1.48-0.307-1.849-0.473c-0.369-0.167-0.615-0.339-1.011-0.98  c-0.5-0.807-0.604-1.239-0.599-1.541c0.005-0.297,0.14-0.651,0.495-1.287c1.979-3.588,3.188-6.005,6.864-9.765  c1.313-1.349,2.86-2.432,4.667-3.557c0.057,0.156,0.105,0.317,0.172,0.479c0.167,0.433,0.589,0.719,1.052,0.719  c0.819,0.005,1.365-0.823,1.052-1.577c-1.171-2.797-1.265-6.167-0.932-8.823c0.308-2.428,0.923-4.141,1.511-5.428  c0.953,0.615,2.161,1.292,3.312,1.579c1.631,0.401,2.813,0.375,2.548,1.781c-0.333,1.724-1.272,3.427-2.761,4.968  c-0.5,0.521-0.599,1.303-0.104,1.672c0.604,0.464,1.136,0.349,1.573,0.068c1.953-1.26,4.057-2.839,6.344-4.765  c0.609,1.025,1.552,1.787,2.599,2.276c1.301,0.604,2.776,0.839,4.203,0.729c1.423-0.109,2.823-0.563,3.891-1.489  c1.068-0.928,1.724-2.391,1.573-4.068c-0.057-0.631,0.249-1.5,1.047-2.495c0.792-0.995,2.031-2.073,3.521-3.073  c0.249-0.167,0.479-0.355,0.692-0.547c0.36,5.677-1.235,12.145-4.068,17.495c-0.375-0.339-0.781-0.641-1.224-0.875  c-1.203-0.641-2.593-0.937-3.952-0.901c-1.355,0.031-2.704,0.391-3.772,1.224c-1.061,0.833-1.776,2.203-1.713,3.807  c0.027,0.573-0.296,1.365-1.088,2.256c-0.792,0.885-2,1.828-3.448,2.692c-2.167,1.292-2.948,3.333-2.251,5.328  c0.261,0.797,0.745,1.505,1.376,2.057c-2.172,1.011-4.371,1.751-6.532,2.271c0.344-2.192,0.193-4.364-0.651-6.395  c-1.047-2.527-3.131-4.776-6.344-6.636c-1.344-0.869-2.557,1.245-1.129,1.964c2.895,1.677,4.552,3.552,5.38,5.547  c0.765,1.839,0.833,3.844,0.339,6.011C48.855,79.815,46.729,80.05,45.125,80.023z M45.079,82.274  c1.729,0.036,3.401-0.141,5.468-0.469c3.819-0.604,7.865-1.839,11.745-3.964c1.729-0.943,3.557-2.151,4.912-3.192  c1.973,0.125,4.312-0.287,6.52-0.891c2.36-0.645,4.485-1.473,5.765-2.369c0.6-0.423,0.647-1.292,0.095-1.776  c-1.199-1.052-1.371-1.724-1.631-2.595c-0.229-0.771-0.609-1.833-1.656-2.624c3.672-5.829,5.672-13,5.667-19.037  c0.932-1.916,1.369-4.531,1.468-7.593c0.105-3.339-0.228-7.177-1.036-11.021c-1.609-7.681-5.031-15.453-10.984-18.891  c-0.604-0.348-1.38-0.072-1.631,0.584c-0.817,2.151-1.161,4.432-0.729,7.172c-2.025-1.589-4.052-2.625-7.547-2.625  c-0.625,0.005-1.129,0.511-1.125,1.136c0,5.041,1.568,8.432,3.928,10.911c2.192,2.308,4.973,3.828,7.749,5.563  c-1.391,11.661-6.432,15.683-13.093,21.36c0.12-0.381,0.229-0.767,0.297-1.157c0.14-0.765,0.124-1.468-0.115-2.088  c-0.24-0.625-0.709-1.099-1.199-1.391c-0.968-0.579-1.989-0.677-2.891-0.917c-1.104-0.285-2.739-1.228-3.5-1.859  c-0.505-0.412-1.255-0.317-1.64,0.208c-1.177,1.615-2.089,4.271-2.495,7.401c-0.292,2.276-0.287,4.787,0.239,7.24  c-2.093,1.276-3.979,2.541-5.624,4.229c-3.849,3.932-5.267,6.697-7.229,10.249c-0.396,0.724-0.756,1.459-0.776,2.349  c-0.016,0.896,0.317,1.776,0.932,2.771c0.563,0.911,1.265,1.531,2.021,1.864c0.755,0.333,1.463,0.433,2.265,0.615  C41.557,81.987,43.349,82.236,45.079,82.274z"/><path fill-rule="evenodd" clip-rule="evenodd" d="M42.475,75.664c-0.781,0-1.412-0.636-1.412-1.417c0-0.787,0.631-1.416,1.412-1.416  s1.411,0.629,1.411,1.416C43.885,75.028,43.256,75.664,42.475,75.664z"/><path d="M8.922,51.403c0.063,0.224,0.115,0.448,0.187,0.661c1.204,3.641,3.475,6.813,6.767,8.803  c3.291,1.989,6.129,3.541,8.129,5.645c1.745,1.833,2.765,4.303,3.057,7.839c-3.083-0.484-5.287-2.104-7.349-3.943  c-0.88-0.776-2.219,0.136-1.817,1.235c0.828,2.292,0.423,4.527,0.109,6.645c-3.932-3.421-7.151-9.115-8.229-15.515  C9.12,58.908,8.51,55.284,8.922,51.403z M24.302,37.435c0.911,0.349,1.511,1.016,1.807,1.776  c-5.927,5.281-8.943,9.937-10.265,18.796c-2.26-1.703-3.688-3.932-4.583-6.651c-0.147-0.437-0.276-0.885-0.385-1.339  c0-0.807,0.375-1.656,1.416-2.359c1.625-1.089,3.016-2.276,4.021-3.537c1.009-1.26,1.676-2.645,1.547-4.115  c-0.099-1.041,0.197-1.661,0.801-2.151C20.333,36.512,22.318,36.679,24.302,37.435z M19.912,17.757  c-1.787,1.708-3.469,3.683-5.021,5.927c-0.459-0.344-0.495-0.64-0.719-1.38c-0.167-0.563-0.463-1.692-1.229-2.464  c1.005-0.531,2.115-0.947,3.88-1.437C17.849,18.127,18.912,17.903,19.912,17.757z M28.073,14.465  c0.755,0.193,1.391,0.813,1.631,1.541c0.291,0.881,0.181,1.808-1.261,2.672c-1.588,0.948-2.957,1.995-3.979,3.136  c-1.016,1.145-1.724,2.432-1.667,3.849c0.036,0.963-0.276,1.489-0.844,1.932c-0.563,0.437-1.459,0.719-2.437,0.744  c-0.973,0.027-2.016-0.213-2.823-0.64c-0.469-0.249-0.839-0.552-1.12-0.901C19.084,21.044,23.458,17.08,28.073,14.465z   M44.823,9.955c1.553,0.032,3.157,0.272,5.376,0.772c0.875,0.203,1.473,0.307,1.844,0.473c0.375,0.167,0.613,0.339,1.015,0.979  c0.495,0.808,0.599,1.24,0.595,1.537c-0.005,0.301-0.141,0.651-0.496,1.291c-1.979,3.589-3.187,6.005-6.864,9.767  c-1.312,1.344-2.855,2.432-4.661,3.557c-0.063-0.157-0.109-0.319-0.172-0.48c-0.172-0.432-0.588-0.719-1.057-0.719  c-0.817-0.005-1.364,0.823-1.047,1.579c1.167,2.796,1.265,6.167,0.927,8.817c-0.301,2.432-0.921,4.145-1.511,5.427  c-0.948-0.609-2.161-1.291-3.307-1.572c-1.631-0.401-2.817-0.376-2.547-1.781c0.328-1.724,1.271-3.428,2.755-4.969  c0.5-0.52,0.599-1.301,0.109-1.677c-0.609-0.457-1.14-0.343-1.577-0.061c-1.953,1.26-4.057,2.837-6.344,4.76  c-0.609-1.021-1.547-1.781-2.599-2.271c-1.297-0.604-2.776-0.839-4.199-0.729c-1.427,0.109-2.823,0.563-3.891,1.489  c-1.068,0.927-1.729,2.391-1.573,4.068c0.057,0.629-0.255,1.5-1.047,2.495c-0.796,0.995-2.031,2.073-3.52,3.073  c-0.256,0.167-0.485,0.353-0.693,0.547c-0.364-5.683,1.229-12.152,4.063-17.495c0.38,0.339,0.787,0.64,1.224,0.875  c1.208,0.64,2.593,0.937,3.953,0.901c1.359-0.032,2.703-0.391,3.771-1.224s1.776-2.204,1.713-3.808  c-0.02-0.572,0.303-1.364,1.093-2.255c0.792-0.885,1.996-1.828,3.448-2.693c2.161-1.291,2.943-3.339,2.251-5.333  c-0.26-0.791-0.751-1.5-1.38-2.052c2.177-1.011,4.369-1.749,6.536-2.271c-0.349,2.193-0.197,4.36,0.645,6.396  c1.053,2.527,3.136,4.776,6.349,6.631c1.339,0.875,2.557-1.245,1.131-1.959c-2.901-1.677-4.557-3.552-5.385-5.547  c-0.761-1.839-0.833-3.844-0.339-6.011C41.099,10.164,43.219,9.929,44.823,9.955z M44.876,7.705  c-1.735-0.036-3.407,0.14-5.469,0.468c-3.823,0.605-7.864,1.833-11.751,3.964c-1.728,0.943-3.552,2.147-4.911,3.193  c-1.969-0.125-4.313,0.287-6.516,0.891c-2.364,0.645-4.484,1.473-5.765,2.369c-0.604,0.421-0.651,1.292-0.099,1.776  c1.203,1.052,1.369,1.724,1.629,2.593c0.235,0.767,0.615,1.833,1.657,2.625c-3.667,5.828-5.667,13-5.667,19.036  c-0.928,1.917-1.371,4.532-1.464,7.595c-0.109,3.339,0.224,7.177,1.031,11.02c1.615,7.683,5.032,15.448,10.985,18.885  c0.609,0.355,1.385,0.079,1.629-0.577c0.819-2.151,1.167-4.432,0.729-7.172c2.032,1.588,4.057,2.625,7.547,2.625  c0.625-0.005,1.131-0.511,1.131-1.141c0-5.036-1.573-8.432-3.927-10.905c-2.193-2.308-4.98-3.829-7.751-5.563  c1.391-11.661,6.427-15.683,13.089-21.36c-0.12,0.38-0.224,0.765-0.297,1.156c-0.141,0.767-0.125,1.469,0.12,2.089  c0.239,0.624,0.708,1.099,1.192,1.391c0.975,0.577,1.989,0.676,2.896,0.911c1.104,0.292,2.74,1.235,3.5,1.86  c0.5,0.416,1.256,0.323,1.636-0.204c1.177-1.613,2.093-4.271,2.495-7.405c0.296-2.271,0.287-4.787-0.24-7.235  c2.099-1.281,3.984-2.541,5.631-4.229c3.848-3.937,5.265-6.697,7.224-10.255c0.401-0.719,0.76-1.453,0.776-2.344  c0.02-0.896-0.313-1.776-0.928-2.771c-0.567-0.912-1.271-1.532-2.025-1.865c-0.755-0.339-1.459-0.432-2.265-0.615  C48.391,7.992,46.604,7.741,44.876,7.705z"/><path fill-rule="evenodd" clip-rule="evenodd" d="M47.475,14.315c0.781,0,1.411,0.636,1.411,1.416c0,0.781-0.629,1.417-1.411,1.417  c-0.776,0-1.412-0.636-1.412-1.417C46.063,14.951,46.699,14.315,47.475,14.315z"/></svg>