<svg
   width="302"
   height="302"
   viewBox="0 0 302 302"
   version="1.1"
   id="VinylSvg"
   inkscape:version="1.1.2 (b8e25be8, 2022-02-05)"
   sodipodi:docname="vinyl-3.svg"
   xmlns:inkscape="http://www.inkscape.org/namespaces/inkscape"
   xmlns:sodipodi="http://sodipodi.sourceforge.net/DTD/sodipodi-0.dtd"
   xmlns="http://www.w3.org/2000/svg"
   xmlns:svg="http://www.w3.org/2000/svg">
  <defs
     id="defs2" />
  <g
     inkscape:label="Layer 1"
     inkscape:groupmode="layer"
     id="layer1"
     transform="translate(0.73541585,0.73541741)">
    <g
       id="record-g"
       transform="matrix(0.80994897,0,0,0.80994897,-24.538138,43.41912)">
      <circle
         id="record-edge"
         cx="215.81943"
         cy="131.91629"
         fill="#0a0a0a"
         style="stroke-width:1.0705"
         r="185.19685" />
      <g
         id="record-gradient"
         transform="matrix(1.070502,0,0,1.070502,-65.527767,-101.71437)">
        <linearGradient
           id="SVGID_2_"
           gradientUnits="userSpaceOnUse"
           x1="346.60999"
           y1="363.38"
           x2="179.02299"
           y2="73.110001">
          <stop
             offset=".103"
             stop-color="#262626"
             id="stop74" />
          <stop
             offset=".345"
             stop-color="#434343"
             id="stop76" />
          <stop
             offset=".496"
             stop-color="#505050"
             id="stop78" />
          <stop
             offset=".641"
             stop-color="#3D3B3C"
             id="stop80" />
          <stop
             offset=".787"
             stop-color="#252223"
             id="stop82" />
          <stop
             offset="1"
             id="stop84" />
        </linearGradient>
        <circle
           cx="262.81699"
           cy="218.245"
           r="167.56"
           fill="url(#SVGID_2_)"
           id="circle87"
           style="fill:url(#SVGID_2_)" />
        <path
           d="m 262.817,387.904 c -93.55,0 -169.66,-76.11 -169.66,-169.66 0,-93.55 76.11,-169.66 169.66,-169.66 93.55,0 169.663,76.106 169.663,169.659 0,93.55 -76.113,169.66 -169.663,169.66 z m 0,-335.118 c -91.234,0 -165.458,74.225 -165.458,165.458 0,91.234 74.223,165.458 165.457,165.458 91.236,0 165.46,-74.225 165.46,-165.458 0,-91.233 -74.223,-165.458 -165.459,-165.458 z"
           fill="#231f20"
           id="path89" />
      </g>
      <circle
         cx="215.81943"
         cy="131.91736"
         opacity="0.5"
         id="circle92"
         style="stroke-width:1.0705"
         r="80.538147" />
      <path
         id="groove3"
         d="m 215.82158,234.02933 c -56.30627,0 -102.1152,-45.80678 -102.1152,-102.11518 0,-56.303068 45.80893,-102.110921 102.1152,-102.110921 56.30412,0 102.10984,45.806782 102.10984,102.111991 0,56.30626 -45.80679,102.11518 -102.11092,102.11518 z m 0,-202.365569 c -55.28073,0 -100.25252,44.971791 -100.25252,100.252519 0,55.28073 44.97179,100.25252 100.25252,100.25252 55.27751,0 100.2493,-44.97179 100.2493,-100.25252 0,-55.280728 -44.97179,-100.252519 -100.25038,-100.252519 z"
         opacity="0.6"
         fill="#231f20"
         style="stroke-width:1.0705" />
      <path
         id="groove2_1_"
         d="m 215.81943,262.01012 c -71.73434,0 -130.095963,-58.36056 -130.095963,-130.09384 0,-71.734345 58.361623,-130.0959753 130.095963,-130.0959753 71.73435,0 130.09491,58.3616303 130.09491,130.0959753 0,71.73435 -58.35843,130.09384 -130.09491,130.09384 z m 0,-258.2821804 c -70.6831,0 -128.189399,57.5073704 -128.189399,128.1894104 0,70.68204 57.506299,128.18728 128.191549,128.18728 70.68524,0 128.18833,-57.50524 128.18833,-128.18728 0,-70.683111 -57.50415,-128.1894104 -128.18833,-128.1894104 z"
         opacity="0.6"
         fill="#231f20"
         style="stroke-width:1.0705" />
      <path
         id="groove1"
         d="m 215.81943,288.72985 c -86.46658,0 -156.813553,-70.34697 -156.813553,-156.81142 0,-86.466602 70.346973,-156.812504 156.813553,-156.812504 86.4666,0 156.81464,70.346972 156.81464,156.813574 0,86.46445 -70.34804,156.81035 -156.81464,156.81035 z m 0,-311.327697 c -85.20126,0 -154.516256,69.315008 -154.516256,154.516277 0,85.19697 69.314996,154.51197 154.516256,154.51197 85.20126,0 154.51841,-69.315 154.51841,-154.51305 0,-85.199119 -69.31715,-154.516267 -154.51841,-154.516267 z"
         opacity="0.6"
         fill="#231f20"
         style="stroke-width:1.0705" />
      <circle
         style="fill:#ff0000;fill-rule:evenodd;stroke-width:1.56595"
         id="path967"
         cx="215.81943"
         cy="131.91628"
         r="45.354332" />
      <circle
         style="fill:#000000;fill-rule:evenodd;stroke-width:0.260992"
         id="path967-6"
         cx="215.81943"
         cy="131.91628"
         r="7.5590553" />
      <circle
         style="fill:#e6e6e6;fill-rule:evenodd;stroke-width:0.130496"
         id="path967-6-5"
         cx="215.81944"
         cy="131.91629"
         r="3.7795277" />
    </g>
  </g>
</svg>